<svg xmlns="http://www.w3.org/2000/svg" width="24" height="24" viewBox="0 0 24 24" fill="none" shape-rendering="crispEdges">
<!-- 由 scripts/pixel-icons.py svg 从 pixel-icon.tsx 导出：改图标请改代码或 PNG，不要直接改这个文件 -->
  <path d="M3 4h18v2h1v15H2V6h1z" fill="#354641" />
  <path d="M3 6h18v14H3z" fill="#bc886f" />
  <path d="M4 7h16v8H4z" fill="#efe6bf" />
  <path d="M5 10h14v4H5z" fill="#53655c" />
  <path d="M6 10h3v3H6zM15 10h3v3h-3z" fill="#d9dfb7" />
  <path d="M10 11h4v1h-4z" fill="#b3bc9c" />
  <path d="M7 17h10l2 3H5z" fill="#e4c69b" />
  <path d="M5 8h10v1H5zM4 18h1v1H4zM19 18h1v1h-1z" fill="#5c6b52" />
</svg>
